<svg xmlns="http://www.w3.org/2000/svg" xmlns:xlink="http://www.w3.org/1999/xlink" width="60" height="60" viewBox="0 0 60 60"><defs><path id="45sba" d="M849 1975a2 2 0 1 1 0 4h-15.999a2 2 0 1 1 0-4zm-9.999-18h4v16h-4zm-5-2a2 2 0 1 1 0-4h1a2 2 0 0 1 2 2v2zm14 30a2 2 0 0 1-2 2h-8.634l10.206-6h.428zm-13.469 1.346a1.983 1.983 0 0 1-.531-1.346v-4h9.635zM845.001 1953a2 2 0 0 1 2-2h1a2 2 0 1 1 0 4h-3zm-23.076-9.953c-.243.66-.352 1.36-.532 2.038-.137.689-.206 1.391-.309 2.086-.484 5.446.744 8.96 3.18 13.541a28.173 28.173 0 0 0 2.574 3.794c.659.864 1.28 1.68 1.833 2.552a15.5 15.5 0 0 1 2.3 6.516 3.976 3.976 0 0 0 1.03 7.284V1985a3.994 3.994 0 0 0 1.873 3.375 1 1 0 0 0 .188.1c.59.34 1.258.52 1.939.525h10a4 4 0 0 0 4-4v-4.142a3.975 3.975 0 0 0 1.01-7.3 15.523 15.523 0 0 1 2.3-6.5c.553-.872 1.174-1.688 1.833-2.552a28.173 28.173 0 0 0 2.574-3.794c2.435-4.58 3.664-8.094 3.181-13.541-.993-10.263-9.587-18.111-19.898-18.171h-.031a20.137 20.137 0 0 0-14.169 6.03c-.255.24-.497.494-.725.76a1 1 0 0 0 .1 1.431 1.011 1.011 0 0 0 1.39-.1 8.18 8.18 0 0 1 .654-.685 17.9 17.9 0 0 1 30.681 10.912c.442 4.977-.648 8.09-2.954 12.424a26.11 26.11 0 0 1-2.4 3.52c-.655.861-1.332 1.75-1.93 2.695a17.536 17.536 0 0 0-2.557 7.013h-4.059v-16h3a4 4 0 1 0 0-8h-1a4 4 0 0 0-4 4v2h-4v-2a4 4 0 0 0-4-4h-1a4 4 0 1 0 0 8h3v16h-4.082a17.541 17.541 0 0 0-2.56-7.013c-.599-.945-1.275-1.834-1.93-2.694a26.152 26.152 0 0 1-2.4-3.521c-2.306-4.336-3.4-7.448-2.954-12.424.1-.623.155-1.252.278-1.87.166-.607.256-1.236.478-1.828a1.019 1.019 0 0 0-.63-1.25.988.988 0 0 0-1.276.647z"/><path id="45sbb" d="M825.27 1939.108a1.03 1.03 0 0 0-.272-.271 1.002 1.002 0 0 0-.759-.132 1.077 1.077 0 0 0-.73 1.279l.071.177c.031.06.07.115.116.164a.624.624 0 0 0 .135.136c.054.04.111.077.17.109.24.112.51.138.766.074.123-.036.24-.095.341-.174a.955.955 0 0 0 .336-1.013 1.245 1.245 0 0 0-.173-.35z"/><path id="45sbc" d="M825.972 1948.61h.089a1 1 0 0 0 1-.912A14.245 14.245 0 0 1 840.988 1935a1 1 0 1 0 0-2c-8.211.134-15.038 6.36-15.924 14.525a1 1 0 0 0 .908 1.084z"/><path id="45sbd" d="M811 1949a1 1 0 0 0 1 1h5a1 1 0 1 0 0-2h-5a1 1 0 0 0-1 1z"/><path id="45sbe" d="M819.715 1960.13l-4.33 2.501a.999.999 0 1 0 1 1.732l4.33-2.5a1 1 0 0 0-1-1.732z"/><path id="45sbf" d="M860.914 1960.5a1 1 0 0 0 .366 1.366l4.33 2.5a1 1 0 0 0 1-1.732l-4.33-2.5a1 1 0 0 0-1.366.366z"/><path id="45sbg" d="M870 1948h-5a1 1 0 1 0 0 2h5a1 1 0 1 0 0-2z"/><path id="45sbh" d="M866.982 1934a1 1 0 0 0-1.366-.366l-4.33 2.5a1.002 1.002 0 0 0-.004 1.737 1 1 0 0 0 1.004-.005l4.33-2.5a1 1 0 0 0 .366-1.366z"/><path id="45sbi" d="M820.715 1936.13l-4.33-2.5a1 1 0 0 0-1 1.733l4.33 2.5a1 1 0 1 0 1-1.732z"/></defs><g><g transform="translate(-811 -1929)"><g><use fill="#38a89d" xlink:href="#45sba"/></g><g><use fill="#38a89d" xlink:href="#45sbb"/></g><g><use fill="#38a89d" xlink:href="#45sbc"/></g><g><use fill="#38a89d" xlink:href="#45sbd"/></g><g><use fill="#38a89d" xlink:href="#45sbe"/></g><g><use fill="#38a89d" xlink:href="#45sbf"/></g><g><use fill="#38a89d" xlink:href="#45sbg"/></g><g><use fill="#38a89d" xlink:href="#45sbh"/></g><g><use fill="#38a89d" xlink:href="#45sbi"/></g></g></g></svg>