<svg xmlns="http://www.w3.org/2000/svg" xmlns:xlink="http://www.w3.org/1999/xlink" width="60" height="60" viewBox="0 0 60 60"><defs><path id="6ydoa" d="M1143 1758v-4.1c0-1-.8-1.9-1.9-1.9h-44.2c-1.1 0-1.9.8-1.9 1.9v4.1l-5 5v4h58v-4l-5-5z"/><path id="6ydob" d="M1091 1766h56v-2.6l-5-5v-4.5c0-.5-.4-.9-.9-.9h-44.2c-.5 0-.9.4-.9.9v4.5l-5 5v2.6zm58 2h-60v-5.4l5-5v-3.7c0-1.6 1.3-2.9 2.9-2.9h44.2c1.6 0 2.9 1.3 2.9 2.9v3.7l5 5z"/><path id="6ydoc" d="M1101 1767v-3.7l3-5v-6.3c0-.6-.4-1-1-1s-1 .4-1 1v5.7l-3 5v4.3c0 .6.4 1 1 1s1-.4 1-1zm10 0v-3.9l1-4.9v-6.2c0-.6-.4-1-1-1s-1 .4-1 1v5.9l-1 4.9v4.2c0 .6.4 1 1 1s1-.4 1-1zm9 0v-15c0-.6-.4-1-1-1s-1 .4-1 1v15c0 .6.4 1 1 1s1-.4 1-1zm9 0v-4l-1-5.1v-5.9c0-.6-.4-1-1-1s-1 .4-1 1v6l1 5.1v3.9c0 .6.4 1 1 1s1-.4 1-1zm10 0v-4.3l-3-5v-5.7c0-.6-.4-1-1-1s-1 .4-1 1v6.3l3 5v3.7c0 .6.4 1 1 1s1-.4 1-1z"/><path id="6ydod" d="M1095.5 1773h-1c-2.5 0-4.5-2-4.5-4.5v-1.5h10v1.5c0 2.5-2 4.5-4.5 4.5z"/><path id="6ydoe" d="M1091 1768v.5c0 1.9 1.6 3.5 3.5 3.5h1c1.9 0 3.5-1.6 3.5-3.5v-.5zm4.5 6h-1c-3 0-5.5-2.5-5.5-5.5v-2.5h12v2.5c0 3-2.5 5.5-5.5 5.5z"/><path id="6ydof" d="M1105.5 1773h-1c-2.5 0-4.5-2-4.5-4.5v-1.5h10v1.5c0 2.5-2 4.5-4.5 4.5z"/><path id="6ydog" d="M1101 1768v.5c0 1.9 1.6 3.5 3.5 3.5h1c1.9 0 3.5-1.6 3.5-3.5v-.5zm4.5 6h-1c-3 0-5.5-2.5-5.5-5.5v-2.5h12v2.5c0 3-2.5 5.5-5.5 5.5z"/><path id="6ydoh" d="M1133.5 1773h-1c-2.5 0-4.5-2-4.5-4.5v-1.5h10v1.5c0 2.5-2 4.5-4.5 4.5z"/><path id="6ydoi" d="M1129 1768v.5c0 1.9 1.6 3.5 3.5 3.5h1c1.9 0 3.5-1.6 3.5-3.5v-.5zm4.5 6h-1c-3 0-5.5-2.5-5.5-5.5v-2.5h12v2.5c0 3-2.5 5.5-5.5 5.5z"/><path id="6ydoj" d="M1143.5 1773h-1c-2.5 0-4.5-2-4.5-4.5v-1.5h10v1.5c0 2.5-2 4.5-4.5 4.5z"/><path id="6ydok" d="M1139 1768v.5c0 1.9 1.6 3.5 3.5 3.5h1c1.9 0 3.5-1.6 3.5-3.5v-.5zm4.5 6h-1c-3 0-5.5-2.5-5.5-5.5v-2.5h12v2.5c0 3-2.5 5.5-5.5 5.5z"/><path id="6ydol" d="M1114.5 1773c-2.5 0-4.5-2-4.5-4.5v-1.5h9v1.5c0 2.5-2 4.5-4.5 4.5z"/><path id="6ydom" d="M1111 1768v.5c0 1.9 1.6 3.5 3.5 3.5s3.5-1.6 3.5-3.5v-.5zm3.5 6c-3 0-5.5-2.5-5.5-5.5v-2.5h11v2.5c0 3-2.5 5.5-5.5 5.5z"/><path id="6ydon" d="M1123.5 1773c-2.5 0-4.5-2-4.5-4.5v-1.5h9v1.5c0 2.5-2 4.5-4.5 4.5z"/><path id="6ydoo" d="M1120 1768v.5c0 1.9 1.6 3.5 3.5 3.5s3.5-1.6 3.5-3.5v-.5zm3.5 6c-3 0-5.5-2.5-5.5-5.5v-2.5h11v2.5c0 3-2.5 5.5-5.5 5.5z"/><path id="6ydop" d="M1090 1795h58v12h-58z"/><path id="6ydoq" d="M1091 1806h56v-10h-56zm58 2h-60v-14h60z"/><path id="6ydor" d="M1113 1789h-14v2h14zm-22-16.2c.6.4 1.3.8 2 1v20.2h-2zm4 23.2v-23.9l-.9-.1c-1.3-.2-2.5-1-2.9-2.3l-.2-.7h-2v27zm50-22.3c.7-.2 1.4-.5 2-1v21.3h-2zm4-4.7h-2l-.2.7c-.5 1.3-1.6 2.1-2.9 2.3l-.9.1v23.9h6z"/><path id="6ydos" d="M1106 1790l-8-8 1.1-1.1c3.8-3.8 10-3.8 13.7 0l1.2 1.1-8 8z"/><path id="6ydot" d="M1099.4 1782l6.6 6.6 6.6-6.6-.4-.4c-3.4-3.4-8.9-3.4-12.3 0zm6.6 9.4l-9.4-9.4 1.8-1.8c4.2-4.2 11-4.2 15.2 0l1.8 1.8z"/><path id="6ydou" d="M1106 1791c-.6 0-1-.4-1-1v-8c0-.6.4-1 1-1s1 .4 1 1v8c0 .6-.4 1-1 1z"/><path id="6ydov" d="M1104 1790h4v5h-4z"/><path id="6ydow" d="M1105 1794h2v-3h-2zm4 2h-6v-7h6z"/><path id="6ydox" d="M1131 1792c0 1.7-1.3 3-3 3s-3-1.3-3-3 1.3-3 3-3 3 1.3 3 3z"/><path id="6ydoy" d="M1128 1790c-1.1 0-2 .9-2 2s.9 2 2 2 2-.9 2-2-.9-2-2-2zm0 6c-2.2 0-4-1.8-4-4s1.8-4 4-4 4 1.8 4 4-1.8 4-4 4z"/><path id="6ydoz" d="M1137 1792c0 1.7-1.3 3-3 3s-3-1.3-3-3 1.3-3 3-3 3 1.3 3 3z"/><path id="6ydoA" d="M1134 1790c-1.1 0-2 .9-2 2s.9 2 2 2 2-.9 2-2-.9-2-2-2zm0 6c-2.2 0-4-1.8-4-4s1.8-4 4-4 4 1.8 4 4-1.8 4-4 4z"/><path id="6ydoB" d="M1134 1786c0 1.7-1.3 3-3 3s-3-1.3-3-3 1.3-3 3-3 3 1.3 3 3z"/><path id="6ydoC" d="M1131 1784c-1.1 0-2 .9-2 2s.9 2 2 2 2-.9 2-2-.9-2-2-2zm0 6c-2.2 0-4-1.8-4-4s1.8-4 4-4 4 1.8 4 4-1.8 4-4 4z"/><path id="6ydoD" d="M1094.999 1795v12"/><path id="6ydoE" d="M1095 1808c-.6 0-1-.4-1-1v-12c0-.6.4-1 1-1s1 .4 1 1v12c0 .6-.4 1-1 1z"/><path id="6ydoF" d="M1098.999 1795v12"/><path id="6ydoG" d="M1099 1808c-.6 0-1-.4-1-1v-12c0-.6.4-1 1-1s1 .4 1 1v12c0 .6-.4 1-1 1z"/><path id="6ydoH" d="M1102.999 1795v12"/><path id="6ydoI" d="M1103 1808c-.6 0-1-.4-1-1v-12c0-.6.4-1 1-1s1 .4 1 1v12c0 .6-.4 1-1 1z"/><path id="6ydoJ" d="M1106.999 1795v12"/><path id="6ydoK" d="M1107 1808c-.6 0-1-.4-1-1v-12c0-.6.4-1 1-1s1 .4 1 1v12c0 .6-.4 1-1 1z"/><path id="6ydoL" d="M1110.999 1795v12"/><path id="6ydoM" d="M1111 1808c-.6 0-1-.4-1-1v-12c0-.6.4-1 1-1s1 .4 1 1v12c0 .6-.4 1-1 1z"/><path id="6ydoN" d="M1114.999 1795v12"/><path id="6ydoO" d="M1115 1808c-.6 0-1-.4-1-1v-12c0-.6.4-1 1-1s1 .4 1 1v12c0 .6-.4 1-1 1z"/><path id="6ydoP" d="M1118.999 1795v12"/><path id="6ydoQ" d="M1119 1808c-.6 0-1-.4-1-1v-12c0-.6.4-1 1-1s1 .4 1 1v12c0 .6-.4 1-1 1z"/><path id="6ydoR" d="M1122.999 1795v12"/><path id="6ydoS" d="M1123 1808c-.6 0-1-.4-1-1v-12c0-.6.4-1 1-1s1 .4 1 1v12c0 .6-.4 1-1 1z"/><path id="6ydoT" d="M1126.999 1795v12"/><path id="6ydoU" d="M1127 1808c-.6 0-1-.4-1-1v-12c0-.6.4-1 1-1s1 .4 1 1v12c0 .6-.4 1-1 1z"/><path id="6ydoV" d="M1130.999 1795v12"/><path id="6ydoW" d="M1131 1808c-.6 0-1-.4-1-1v-12c0-.6.4-1 1-1s1 .4 1 1v12c0 .6-.4 1-1 1z"/><path id="6ydoX" d="M1134.999 1795v12"/><path id="6ydoY" d="M1135 1808c-.6 0-1-.4-1-1v-12c0-.6.4-1 1-1s1 .4 1 1v12c0 .6-.4 1-1 1z"/><path id="6ydoZ" d="M1138.999 1795v12"/><path id="6ydoaa" d="M1139 1808c-.6 0-1-.4-1-1v-12c0-.6.4-1 1-1s1 .4 1 1v12c0 .6-.4 1-1 1z"/><path id="6ydoab" d="M1142.999 1795v12"/><path id="6ydoac" d="M1143 1808c-.6 0-1-.4-1-1v-12c0-.6.4-1 1-1s1 .4 1 1v12c0 .6-.4 1-1 1z"/><path id="6ydoad" d="M1090 1807h4v3h-4z"/><path id="6ydoae" d="M1091 1809h2v-1h-2zm4 2h-6v-5h6z"/><path id="6ydoaf" d="M1144 1807h4v3h-4z"/><path id="6ydoag" d="M1145 1809h2v-1h-2zm4 2h-6v-5h6z"/></defs><g><g transform="translate(-1089 -1751)"><g><use fill="#fff" xlink:href="#6ydoa"/></g><g><g><use fill="#38a89d" xlink:href="#6ydob"/></g><g><use fill="#38a89d" xlink:href="#6ydoc"/></g></g><g><use fill="#c1e4e1" xlink:href="#6ydod"/></g><g><use fill="#38a89d" xlink:href="#6ydoe"/></g><g><use fill="#c1e4e1" xlink:href="#6ydof"/></g><g><use fill="#38a89d" xlink:href="#6ydog"/></g><g><use fill="#c1e4e1" xlink:href="#6ydoh"/></g><g><use fill="#38a89d" xlink:href="#6ydoi"/></g><g><use fill="#c1e4e1" xlink:href="#6ydoj"/></g><g><use fill="#38a89d" xlink:href="#6ydok"/></g><g><use fill="#c1e4e1" xlink:href="#6ydol"/></g><g><use fill="#38a89d" xlink:href="#6ydom"/></g><g><use fill="#c1e4e1" xlink:href="#6ydon"/></g><g><use fill="#38a89d" xlink:href="#6ydoo"/></g><g><use fill="#fff" xlink:href="#6ydop"/></g><g><g><use fill="#38a89d" xlink:href="#6ydoq"/></g><g><use fill="#38a89d" xlink:href="#6ydor"/></g></g><g><use fill="#c1e4e1" xlink:href="#6ydos"/></g><g><g><use fill="#38a89d" xlink:href="#6ydot"/></g><g><use fill="#38a89d" xlink:href="#6ydou"/></g></g><g><use fill="#d0e8f9" xlink:href="#6ydov"/></g><g><use fill="#38a89d" xlink:href="#6ydow"/></g><g><use fill="#c1e4e1" xlink:href="#6ydox"/></g><g><use fill="#38a89d" xlink:href="#6ydoy"/></g><g><use fill="#c1e4e1" xlink:href="#6ydoz"/></g><g><use fill="#38a89d" xlink:href="#6ydoA"/></g><g><use fill="#c1e4e1" xlink:href="#6ydoB"/></g><g><use fill="#38a89d" xlink:href="#6ydoC"/></g><g><use fill="#fff" xlink:href="#6ydoD"/></g><g><use fill="#38a89d" xlink:href="#6ydoE"/></g><g><use fill="#fff" xlink:href="#6ydoF"/></g><g><use fill="#38a89d" xlink:href="#6ydoG"/></g><g><use fill="#fff" xlink:href="#6ydoH"/></g><g><use fill="#38a89d" xlink:href="#6ydoI"/></g><g><use fill="#fff" xlink:href="#6ydoJ"/></g><g><use fill="#38a89d" xlink:href="#6ydoK"/></g><g><use fill="#fff" xlink:href="#6ydoL"/></g><g><use fill="#38a89d" xlink:href="#6ydoM"/></g><g><use fill="#fff" xlink:href="#6ydoN"/></g><g><use fill="#38a89d" xlink:href="#6ydoO"/></g><g><use fill="#fff" xlink:href="#6ydoP"/></g><g><use fill="#38a89d" xlink:href="#6ydoQ"/></g><g><use fill="#fff" xlink:href="#6ydoR"/></g><g><use fill="#38a89d" xlink:href="#6ydoS"/></g><g><use fill="#fff" xlink:href="#6ydoT"/></g><g><use fill="#38a89d" xlink:href="#6ydoU"/></g><g><use fill="#fff" xlink:href="#6ydoV"/></g><g><use fill="#38a89d" xlink:href="#6ydoW"/></g><g><use fill="#fff" xlink:href="#6ydoX"/></g><g><use fill="#38a89d" xlink:href="#6ydoY"/></g><g><use fill="#fff" xlink:href="#6ydoZ"/></g><g><use fill="#38a89d" xlink:href="#6ydoaa"/></g><g><use fill="#fff" xlink:href="#6ydoab"/></g><g><use fill="#38a89d" xlink:href="#6ydoac"/></g><g><use fill="#fff" xlink:href="#6ydoad"/></g><g><use fill="#38a89d" xlink:href="#6ydoae"/></g><g><use fill="#fff" xlink:href="#6ydoaf"/></g><g><use fill="#38a89d" xlink:href="#6ydoag"/></g></g></g></svg>