<svg xmlns="http://www.w3.org/2000/svg" xmlns:xlink="http://www.w3.org/1999/xlink" width="54" height="60" viewBox="0 0 54 60"><defs><path id="owwka" d="M1113.814 1965.875c-1.609 1.51-1.45 4.96.4 8.4 1.08 2.15 3.829 4.78 7.497 7.2a29.8 29.8 0 0 1-5.088 1.26c-.01-.01-.03-.02-.04-.04a21.22 21.22 0 0 1-5.917-6.58c-2.76-5.15-2.61-10.33.42-13.15a8.284 8.284 0 0 1 6.327-2.01c1.609.14 4.368.7 5.577 1.61v4.75c-.61 0-2.498-.25-2.878-.76a4.303 4.303 0 0 0-3.059-1.63c-.15-.01-.3-.02-.44-.02a4.222 4.222 0 0 0-2.799.97z"/><path id="owwkb" d="M1132.736 1976.17a21.355 21.355 0 0 1-5.937 6.57l-.34.21-4.388 2.72c-.12.05-.24.08-.36.12-.43.13-.87.25-1.31.35h-.01c-.45.09-.9.18-1.36.25a38.058 38.058 0 0 1-6.306.61c-.43 0-.84-.01-1.25-.03-4.828-.22-8.356-1.78-10.545-4.65-4.878-6.4-1.35-17.44 1.16-23.34l.06-.15c.503.1 1.015.15 1.529.15h2.758c-2.548 5.57-6.097 16-2.329 20.92 1.57 2.06 4.309 2.91 7.407 3.07a27.15 27.15 0 0 0 4.478-.16h.02c.2-.02.41-.04.61-.07 1.73-.27 3.432-.691 5.088-1.26 3.668-2.42 6.417-5.04 7.466-7.15 1.88-3.49 2.04-6.94.43-8.45a4.354 4.354 0 0 0-3.238-.95 4.248 4.248 0 0 0-.79.15 4.015 4.015 0 0 0-2.269 1.48 1.974 1.974 0 0 1-1.6.76v-4.75a8.282 8.282 0 0 1 4.299-1.61 8.295 8.295 0 0 1 6.327 2.01c3.03 2.82 3.179 8 .4 13.2z"/><path id="owwkc" d="M1117.952 1933.59l-2.828 18.61a7.877 7.877 0 0 1-7.807 6.78h-3.638a7.879 7.879 0 0 1-7.807-6.78l-2.829-18.6a4.05 4.05 0 0 1 .92-3.21 3.926 3.926 0 0 1 2.989-1.39h3.958v4h-3.958l2.828 18.6a3.94 3.94 0 0 0 3.899 3.39h3.638a3.939 3.939 0 0 0 3.898-3.39l2.829-18.6h-4.048v-4h4.048a3.926 3.926 0 0 1 2.989 1.39 4.036 4.036 0 0 1 .92 3.2z"/><path id="owwkd" d="M1142.49 1982.32c-2.378 3.11-6.326 4.68-11.794 4.68-.41 0-.82-.01-1.24-.03h-.01a43.674 43.674 0 0 1-7.726-1.08l.35-.22 4.388-2.72.34-.21c.87.11 1.739.19 2.599.23h.05c4.068.2 7.896-.48 9.865-3.07 3.779-4.96.22-15.41-2.339-20.96l1.59-.63 2.119-.84c2.409 5.32 7.157 17.85 1.809 24.85z"/><path id="owwke" d="M1143.973 1951a7.977 7.977 0 0 1-3.299 6.47 7.911 7.911 0 0 1-4.698 1.53c-.415 0-.829-.03-1.24-.09l-.12-.03a7.999 7.999 0 0 1-6.646-7.946 7.999 7.999 0 0 1 6.767-7.844c.41-.06.824-.09 1.24-.09a7.998 7.998 0 0 1 7.996 8z"/><path id="owwkf" d="M1130.015 1976.17a21.305 21.305 0 0 1-5.897 6.57l-4.698 2.93c-.12.05-.24.08-.358.12-.871.262-1.76.463-2.659.6a42.13 42.13 0 0 1-5.032.58c-4.793-.22-8.296-1.78-10.47-4.65-4.841-6.4-1.339-17.44 1.152-23.34h3.862c-2.531 5.57-6.054 16-2.313 20.92 1.975 2.6 3.767 3.27 7.816 3.07a26.77 26.77 0 0 0 4.446-.16h.02c.199-.02.407-.04.605-.07a29.38 29.38 0 0 0 5.05-1.26c3.643-2.42 6.372-5.04 7.413-7.15 1.867-3.49 2.026-6.94.427-8.45a4.295 4.295 0 0 0-3.214-.95 4.197 4.197 0 0 0-.785.15c-.525-.15-1.1.87-1.686.92a7.165 7.165 0 0 0-2.868.77v-4.2a11.09 11.09 0 0 1 4.525-1.56 7.934 7.934 0 0 1 4.267 1.96c3.007 2.82 3.156 8 .397 13.2z"/><path id="owwkg" d="M1139.575 1982.323c-2.155 2.87-5.612 4.43-10.334 4.65h-.009c-.392.02-.8.03-1.216.03a38.969 38.969 0 0 1-7.65-.86h-.01c-.372-.08-.744-.16-1.136-.25l.343-.22 4.637-1.67c.706.09 1.411-1.1 2.106-1.05.959.066 1.92.073 2.88.02h.05c3.986.2 7.738-.48 9.668-3.07 3.698-4.96.216-15.41-2.292-20.96a8.118 8.118 0 0 1-2.185-.03l-.254.03.137-.06s3.732-.87 3.86-.57c.038.074.072.15.099.23 2.437 5.78 6.228 17.21 1.306 23.78z"/><path id="owwkh" d="M1140.975 1951a8.082 8.082 0 0 1-3.173 6.47 7.628 7.628 0 0 1-3.32 1.44l-.249.03.134-.06a7.906 7.906 0 0 1-6.386-7.88 7.917 7.917 0 0 1 6.502-7.91 7.92 7.92 0 0 1 6.492 7.91z"/><path id="owwki" d="M1139.976 1951a3.999 3.999 0 1 1-3.998-4 3.999 3.999 0 0 1 3.998 4z"/><path id="owwkj" d="M1095.872 1952.2a7.879 7.879 0 0 0 6.278 6.63l-.06.15h-.027c-2.49 5.9-5.997 16.94-1.151 23.34 2.174 2.87 5.676 4.43 10.47 4.65h.093c.41.02.82.03 1.25.03.5 0 1-.017 1.5-.043-4.709-.249-8.161-1.8-10.31-4.637-4.841-6.4-1.339-17.44 1.152-23.34h.026l.06-.15a7.88 7.88 0 0 1-6.282-6.63l-2.83-18.6a4.047 4.047 0 0 1 .92-3.21 3.926 3.926 0 0 1 2.99-1.39h-3a3.926 3.926 0 0 0-2.988 1.39 4.05 4.05 0 0 0-.92 3.21z"/><path id="owwkk" d="M1094.88 1952.352l-1.955-12.852-.875-5.749 1.976-.301.875 5.749 1.955 12.852z"/><path id="owwkl" d="M1094.82 1945.282c.26-.043.495-.184.657-.393.076-.108.13-.23.16-.357a.971.971 0 0 0-.73-1.2 1 1 0 0 0-.833 1.778l.166.1a.7.7 0 0 0 .191.061c.061.021.124.032.188.033a1.39 1.39 0 0 0 .2-.022z"/><path id="owwkm" d="M1100.996 1930a1 1 0 0 1 0 2h-1v-2zm8.996 0h1v2h-1a1 1 0 0 1 0-2zm11.706 50.278c-3.22-2.207-5.667-4.59-6.612-6.47-1.58-2.941-1.836-6.034-.6-7.19a3.176 3.176 0 0 1 2.12-.712c.117 0 .244.01.344.016.92.065 1.771.512 2.348 1.233a3.052 3.052 0 0 0 4.794.007 3.304 3.304 0 0 1 2.346-1.24c.883-.101 1.77.15 2.47.7 1.078 1.015 1.207 3.825-.644 7.269-.9 1.815-3.335 4.178-6.562 6.388zm-18.387.228c2.14 2.8 6.276 3.911 12.31 3.335.036.008.071.015.107.019.068 0 .135-.007.2-.02l.215-.04h.017c.192-.018.392-.039.583-.067h.008c.411-.054 4.051-.552 5.466-1.386.006 0 .009-.01.015-.014.006-.003.019-.007.028-.013 3.84-2.536 6.686-5.284 7.796-7.512 2.115-3.926 2.206-7.806.232-9.653l-.006-.006a5.504 5.504 0 0 0-7.777.822 1.108 1.108 0 0 1-1.6-.007 5.299 5.299 0 0 0-3.79-2.033 7.643 7.643 0 0 0-.508-.023 5.147 5.147 0 0 0-3.48 1.247c-1.975 1.846-1.894 5.7.187 9.578.985 1.954 3.212 4.25 6.217 6.452-.856.209-1.832.387-2.615.5a19.356 19.356 0 0 1-5.375-6.04c-2.548-4.756-2.461-9.445.22-11.94a7.607 7.607 0 0 1 9.345-.336 1 1 0 0 0 1.2 0 7.61 7.61 0 0 1 9.343.333c2.684 2.5 2.761 7.206.19 12.018a20.138 20.138 0 0 1-5.663 6.234l-.54.429a16.236 16.236 0 0 1-2.45 1.725 13.894 13.894 0 0 1-4.324 1.3c-2.026.373-4.08.574-6.14.6-5.124 0-8.825-1.443-10.995-4.287-4.552-5.967-1.026-16.719 1.05-21.776.299.029.599.048.899.048h1.233c-2.014 4.736-5.673 15.194-1.598 20.514zm36.793 0c4.174-5.478.272-16.24-1.716-20.843a8.891 8.891 0 0 0 1.842-.734c2.355 5.483 6.165 16.63 1.464 22.783-2.928 3.827-8.628 5.1-16.87 3.753a22.85 22.85 0 0 0 2.059-1.519l.216-.171c1.201.145 2.409.223 3.618.232 4.464 0 7.614-1.172 9.387-3.501zm-11.12-29.506c0-3.866 3.135-7 7.002-7a7.001 7.001 0 1 1 0 14 7.01 7.01 0 0 1-7.002-7zm-36.93-17.252l1.025 6.737a1 1 0 1 0 1.975-.3l-1.023-6.729a3.052 3.052 0 0 1 .69-2.417 2.92 2.92 0 0 1 2.225-1.039h1.051v2h-1.051a1 1 0 0 0-.988 1.15l2.829 18.6a4.93 4.93 0 0 0 4.883 4.239h3.648a4.927 4.927 0 0 0 4.882-4.238l2.83-18.6a1 1 0 0 0-.988-1.151h-1.051v-2h1.051a2.924 2.924 0 0 1 2.226 1.038c.564.664.816 1.538.69 2.4l-2.829 18.609a6.898 6.898 0 0 1-6.811 5.938h-3.648a6.976 6.976 0 0 1-1.143-.1 1.009 1.009 0 0 0-.37-.075 6.92 6.92 0 0 1-5.298-5.763l-.6-3.955a1 1 0 0 0-1.976.3l.6 3.955a8.922 8.922 0 0 0 5.904 7.15c-2.59 6.39-5.589 16.96-.655 23.431 2.574 3.365 6.81 5.072 12.589 5.072a38.417 38.417 0 0 0 6.471-.624 23.333 23.333 0 0 0 2.354-.5 43.26 43.26 0 0 0 9.147 1.124c5.779 0 10.015-1.707 12.595-5.073 5.287-6.927 1.559-18.453-1.389-25.166a8.99 8.99 0 0 0 1.765-11.379 8.98 8.98 0 0 0-10.874-3.773 8.987 8.987 0 0 0 3.19 17.391c.122 0 .24-.013.36-.018 3.066 6.873 5.178 15.368 2.175 19.312-1.834 2.405-5.687 2.859-9.24 2.669a18.922 18.922 0 0 0 4.339-5.321c2.999-5.616 2.764-11.27-.6-14.406a9.306 9.306 0 0 0-7.092-2.272 9.433 9.433 0 0 0-4.21 1.392 9.428 9.428 0 0 0-4.207-1.392 9.295 9.295 0 0 0-7.097 2.274c-3.368 3.136-3.61 8.77-.633 14.329a18.948 18.948 0 0 0 4.375 5.4c-3.474.186-7.387-.241-9.244-2.67-2.99-3.9-.874-12.417 2.184-19.307h.236a8.883 8.883 0 0 0 8.786-7.636l2.823-18.623a5.037 5.037 0 0 0-1.147-3.99 4.919 4.919 0 0 0-3.746-1.741h-4.05a3 3 0 0 0 0 6h2.887l-2.656 17.45a2.94 2.94 0 0 1-2.905 2.538h-3.648a2.942 2.942 0 0 1-2.906-2.54l-2.655-17.448h2.887a3 3 0 0 0 0-6h-4.05a4.92 4.92 0 0 0-3.747 1.74 5.062 5.062 0 0 0-1.146 4z"/><path id="owwkn" d="M1132.98 1951a3 3 0 1 1 5.998 0 3 3 0 0 1-5.999 0zm7.996 0a4.999 4.999 0 1 0-9.998-.002 4.999 4.999 0 0 0 9.998.002z"/></defs><g><g transform="translate(-1092 -1928)"><g><use fill="#fff" xlink:href="#owwka"/></g><g><use fill="#c1e4e1" xlink:href="#owwkb"/></g><g><use fill="#c1e4e1" xlink:href="#owwkc"/></g><g><use fill="#c1e4e1" xlink:href="#owwkd"/></g><g><use fill="#c1e4e1" xlink:href="#owwke"/></g><g><g><use fill="#fff" xlink:href="#owwkf"/></g><g><use fill="#e3e7f2" xlink:href="#owwkg"/></g><g><use fill="#fff" xlink:href="#owwkh"/></g><g><use fill="#e3e7f2" xlink:href="#owwki"/></g></g><g><use fill="#fff" xlink:href="#owwkj"/></g><g><use fill="#fff" xlink:href="#owwkk"/></g><g><use fill="#38a89d" xlink:href="#owwkl"/></g><g><use fill="#38a89d" xlink:href="#owwkm"/></g><g><use fill="#38a89d" xlink:href="#owwkn"/></g></g></g></svg>