<svg xmlns="http://www.w3.org/2000/svg" xmlns:xlink="http://www.w3.org/1999/xlink" width="60" height="60" viewBox="0 0 60 60"><defs><path id="tng2a" d="M862.075 1806.014c.133-2.654.293-5.929.335-9.275a23.198 23.198 0 0 0 3.581-3.541l-2.917 15.702h-1.135c.033-.837.081-1.805.134-2.886zm-18.428-.404a1.006 1.006 0 0 1-.709.306h-.018a1 1 0 0 1-.993-.983l-.03-2.137.05-7.95v-.006a.909.909 0 0 0-.038-.189.955.955 0 0 0-.04-.2.908.908 0 0 0-.105-.157.991.991 0 0 0-.108-.16 1.042 1.042 0 0 0-.149-.1.985.985 0 0 0-.167-.114 1.02 1.02 0 0 0-.184-.038.967.967 0 0 0-.2-.042h-.01c-.31.008-.639 0-1.013-.01a70.27 70.27 0 0 1-3.072 0l3.997-2.074a2.146 2.146 0 0 1 2.087.014 2.38 2.38 0 0 1 1.008 2.161l-.06 8.572.03 2.402a.98.98 0 0 1-.278.705zm-28.25-13.772c1.087.498 2.203.931 3.341 1.297 1.485.477 2.992.879 4.518 1.202a65.26 65.26 0 0 0 7.95 1.196 79.502 79.502 0 0 0 8.723.278h.015l-.038 5.983c-12.578-.267-20.509-4.914-24.51-9.956zm13.78 1.487a62.5 62.5 0 0 1-3.72-.566l1.9-1.958zm-3.865-6.159a2.989 2.989 0 0 1 4.572.331l4.536 6.247a83.12 83.12 0 0 1-2.595-.167l-2.85-3.944a1.996 1.996 0 0 0-3.058-.228l-2.78 2.863a44.939 44.939 0 0 1-2.233-.563zm27.119.775a3.499 3.499 0 0 1 3.497 3.5 3.37 3.37 0 0 1-.187 1.061 59.75 59.75 0 0 1-6.15.953 3.436 3.436 0 0 1-.658-2.015c0-1.932 1.566-3.5 3.498-3.5zm-6.498 7.79a74.916 74.916 0 0 0 3.32-.24c2.504-.234 4.99-.62 7.448-1.155a37.876 37.876 0 0 0 7.806-2.485c-3.327 4.208-9.377 8.14-18.619 9.476zm4.996-24.767a.995.995 0 0 1-.998-.993c0-.549.447-.993.998-.993.551 0 .998.444.998.993a.995.995 0 0 1-.998.993zm4.99-3.982a.998.998 0 1 1-.001 1.996.998.998 0 0 1 0-1.996zm9.189 41.918l2.718-14.681c0-.007.006-.012.009-.02l.638-3.463 1.407-7.6a.998.998 0 0 0-1.963-.363l-.883 4.765-.02.033a1.045 1.045 0 0 0-.08.1c-.394.798-1.941 1.89-4.599 2.934a29.054 29.054 0 0 0-1.497-9.027 48.895 48.895 0 0 0-4.186-8.17c-.563-.914-1.05-1.704-1.46-2.534a2.994 2.994 0 1 0-1.383-5.014 37.004 37.004 0 0 1-.2-2.473c8.837-1.704 12.488 8.303 12.644 8.742a.999.999 0 0 0 1.882-.662c-.033-.118-3.937-10.873-13.319-10.242a6.452 6.452 0 0 1 4.085-2.307c4.168-.466 8.239 3.72 8.284 3.762a.998.998 0 0 0 1.445-1.377c-.193-.2-4.784-4.933-9.935-4.37a7.938 7.938 0 0 0-4.377 1.991 9.86 9.86 0 0 1 5.956-5.979.999.999 0 1 0-.698-1.868 11.786 11.786 0 0 0-7.096 7.104 11.808 11.808 0 0 0-10.028-7.168 1.02 1.02 0 0 0-1.017.974.997.997 0 0 0 .975 1.022 9.59 9.59 0 0 1 8.053 5.604c-5.864-4.954-12.849-1.745-12.93-1.707a.999.999 0 0 0 .856 1.804c.265-.127 5.39-2.477 10.087.88a8.49 8.49 0 0 0-5.431.17c-4.772 1.88-6.307 7.951-6.37 8.21a.998.998 0 0 0 1.94.473c.012-.053 1.341-5.32 5.161-6.827 1.782-.698 3.877-.464 6.241.676-3.4 1.298-9.288 4.927-10.59 14.728a.998.998 0 1 0 1.978.264c1.327-9.99 7.671-12.75 10.233-13.462.058 1.126.177 2.248.353 3.362a2.994 2.994 0 1 0 1.388 4.512c.456.935.986 1.796 1.58 2.761a47.13 47.13 0 0 1 4.034 7.87c.752 1.857 1.212 4.883 1.374 8.972-.76.243-1.588.479-2.476.7a5.49 5.49 0 1 0-10.948-.564c.004.76.167 1.511.48 2.205a83.45 83.45 0 0 1-1.489.093 4.292 4.292 0 0 0-1.957-3.664 4.144 4.144 0 0 0-4.041-.08l-4.192 2.179-4.235-5.84a4.982 4.982 0 0 0-7.623-.55l-5.11 5.257c-3.584-1.245-5.518-2.61-5.83-3.446a.96.96 0 0 0-.083-.134l-.5-2.695-.37-1.996a.997.997 0 1 0-1.962.363l.37 1.996 2.44 13.175a.998.998 0 1 0 1.965-.359l-.889-4.799c3.573 4.518 11.057 10.343 25.994 10.67l.016 1.149c.015.792.342 1.545.911 2.095a2.96 2.96 0 0 0 2.076.847h.055a2.994 2.994 0 0 0 2.105-.912 2.958 2.958 0 0 0 .841-2.124l-.019-1.523a34.811 34.811 0 0 0 14.498-5.147c-.063 2.789-.2 5.477-.306 7.72-.055 1.12-.1 2.124-.138 2.984h-43.116l-.576-3.109a.998.998 0 1 0-1.963.363l.511 2.747h-3.792a.998.998 0 1 0 0 1.996H868.9a.998.998 0 0 0 0-1.996z"/><path id="tng2b" d="M822.988 1758.996a3.993 3.993 0 1 1-3.994 3.992 3.993 3.993 0 0 1 3.994-3.992zm0 9.98a5.988 5.988 0 1 0 0-11.976 5.988 5.988 0 0 0 0 11.976z"/><path id="tng2c" d="M821.99 1771.968v1.996a.998.998 0 0 0 1.996 0v-1.996a.998.998 0 1 0-1.996 0z"/><path id="tng2d" d="M822.988 1755.002a.998.998 0 0 0 .998-.998v-1.996a.998.998 0 0 0-1.996 0v1.996c0 .551.447.998.998.998z"/><path id="tng2e" d="M812.008 1763.986h1.996a.998.998 0 1 0 0-1.996h-1.996a.998.998 0 0 0 0 1.996z"/><path id="tng2f" d="M830.97 1762.988c0 .551.447.998.998.998h1.996a.998.998 0 1 0 0-1.996h-1.996a.998.998 0 0 0-.998.998z"/><path id="tng2g" d="M815.926 1768.64l-1.412 1.411a.998.998 0 1 0 1.412 1.412l1.411-1.412a.998.998 0 0 0-1.411-1.41z"/><path id="tng2h" d="M829.338 1757.635a.997.997 0 0 0 .705-.292l1.412-1.412a.998.998 0 0 0-1.412-1.41l-1.41 1.41a.998.998 0 0 0 .705 1.704z"/><path id="tng2i" d="M815.931 1757.343a.999.999 0 0 0 1.412-1.412l-1.412-1.41a.998.998 0 0 0-1.411 1.41z"/><path id="tng2j" d="M828.632 1768.632a.998.998 0 0 0 0 1.412l1.412 1.41a.998.998 0 0 0 1.41-1.41l-1.41-1.412a.998.998 0 0 0-1.412 0z"/><path id="tng2k" d="M814.339 1803.018c.06.018.124.026.187.026.067 0 .134-.007.2-.017a.959.959 0 0 0 .791-.775 1.022 1.022 0 0 0-.405-1.032 1.03 1.03 0 0 0-.361-.146 1.02 1.02 0 0 0-.388-.01.998.998 0 0 0-.386 1.807l.169.091a.764.764 0 0 0 .193.056z"/></defs><g><g transform="translate(-810 -1751)"><g><use fill="#38a89d" xlink:href="#tng2a"/></g><g><use fill="#38a89d" xlink:href="#tng2b"/></g><g><use fill="#38a89d" xlink:href="#tng2c"/></g><g><use fill="#38a89d" xlink:href="#tng2d"/></g><g><use fill="#38a89d" xlink:href="#tng2e"/></g><g><use fill="#38a89d" xlink:href="#tng2f"/></g><g><use fill="#38a89d" xlink:href="#tng2g"/></g><g><use fill="#38a89d" xlink:href="#tng2h"/></g><g><use fill="#38a89d" xlink:href="#tng2i"/></g><g><use fill="#38a89d" xlink:href="#tng2j"/></g><g><use fill="#38a89d" xlink:href="#tng2k"/></g></g></g></svg>