<?xml version="1.0" encoding="iso-8859-1"?>
<!-- Uploaded to: SVG Repo, www.svgrepo.com, Generator: SVG Repo Mixer Tools -->
<svg version="1.1" id="Layer_1" xmlns="http://www.w3.org/2000/svg" xmlns:xlink="http://www.w3.org/1999/xlink" 
	 viewBox="0 0 490.001 490.001" xml:space="preserve">
<g>
	<g id="XMLID_1030_">
		<rect y="0" style="fill:#36A9E1;" width="490" height="276.901"/>
	</g>
	<g id="XMLID_1029_">
		<rect y="274.867" style="fill:#006633;" width="490" height="92.507"/>
	</g>
	<g id="XMLID_1028_">
		<polyline style="fill:#006633;" points="0,490 0,445.02 490,445.02 490,490 		"/>
	</g>
	<g id="XMLID_1031_">
		<path style="fill:#F39200;" d="M96.531,298.594H56.594c-1.657,0-3-1.343-3-3V156.125c0-1.657,1.343-3,3-3h39.938
			c1.657,0,3,1.343,3,3v139.469C99.531,297.251,98.188,298.594,96.531,298.594z"/>
	</g>
	<g id="XMLID_1044_">
		<path style="fill:#F39200;" d="M214.375,336.875L214.375,336.875c-12.685,0-22.969-10.283-22.969-22.969v-45.938
			c0-12.685,10.283-22.969,22.969-22.969l0,0c12.685,0,22.969,10.283,22.969,22.969v45.938
			C237.344,326.592,227.06,336.875,214.375,336.875z"/>
	</g>
	<g id="XMLID_1026_">
		<rect y="367.5" style="fill:#00A19A;" width="490" height="82.305"/>
	</g>
	<g id="XMLID_1027_">
		<rect y="358.887" style="fill:#FFFFFF;" width="490" height="15.313"/>
	</g>
	<g id="XMLID_1059_">
		<g>
			<path style="fill:#FFFFFF;" d="M235.43,199.063c-7.486,0-13.873-4.8-16.242-11.484h-33.523c-9.499,0-17.227-7.727-17.227-17.227
				c0-9.499,7.727-17.227,17.227-17.227h72.734c7.486,0,13.873,4.8,16.242,11.484h33.523c9.499,0,17.227,7.727,17.227,17.227
				c0,9.499-7.728,17.227-17.227,17.227H235.43z"/>
		</g>
		<g>
			<path style="fill:#1D1D1B;" d="M258.398,160.781c5.286,0,9.57,4.285,9.57,9.57c0,0.656-0.067,1.295-0.193,1.914h40.388
				c5.286,0,9.57,4.285,9.57,9.57s-4.285,9.57-9.57,9.57H235.43c-5.286,0-9.57-4.285-9.57-9.57c0-0.656,0.067-1.295,0.193-1.914
				h-40.388c-5.286,0-9.57-4.285-9.57-9.57c0-5.286,4.285-9.57,9.57-9.57H258.398 M258.398,145.469h-72.734
				c-13.72,0-24.883,11.162-24.883,24.883c0,13.72,11.162,24.883,24.883,24.883h28.806c4.427,6.902,12.168,11.484,20.96,11.484
				h72.734c13.72,0,24.883-11.162,24.883-24.883c0-13.72-11.162-24.883-24.883-24.883h-28.806
				C274.93,150.051,267.19,145.469,258.398,145.469L258.398,145.469z"/>
		</g>
	</g>
	<g id="XMLID_1358_">
		<rect x="68.906" y="114.844" style="fill:#1D1D1B;" width="15.313" height="22.969"/>
	</g>
	<g id="XMLID_1359_">
		<rect x="206.719" y="206.719" style="fill:#1D1D1B;" width="15.313" height="22.969"/>
	</g>
	<g id="XMLID_1032_">
		<circle style="fill:#FBD185;" cx="336.875" cy="122.5" r="91.875"/>
	</g>
	<g id="XMLID_1045_">
		<circle style="fill:#FAC15C;" cx="336.875" cy="122.5" r="70.182"/>
	</g>
	<g id="XMLID_1047_">
		<circle style="fill:#F9B233;" cx="336.875" cy="122.5" r="56.146"/>
	</g>
	<g id="XMLID_1360_">
		<path style="fill:#1D1D1B;" d="M336.875,222.031c-54.882,0-99.531-44.649-99.531-99.531s44.649-99.531,99.531-99.531
			s99.531,44.649,99.531,99.531S391.757,222.031,336.875,222.031z M336.875,38.281c-46.439,0-84.219,37.78-84.219,84.219
			s37.78,84.219,84.219,84.219s84.219-37.78,84.219-84.219S383.314,38.281,336.875,38.281z"/>
	</g>
	<g id="XMLID_1368_">
		<rect x="260.313" y="444.063" style="fill:#FFFFFF;" width="229.688" height="15.313"/>
	</g>
	<g id="XMLID_1077_">
		<rect x="145.469" y="436.406" style="fill:#FFFFFF;" width="22.969" height="15.313"/>
	</g>
	<path style="fill:#95C11F;" d="M236.633,482.344h-20.167v-17.751c0-15.567,12.62-28.187,28.187-28.187h19.841v18.077
		C264.494,469.87,252.02,482.344,236.633,482.344z"/>
	<path style="fill:#95C11F;" d="M194.659,482.344h21.806v-19.39c0-14.662-11.886-26.548-26.548-26.548h-21.48v19.716
		C168.438,470.604,180.177,482.344,194.659,482.344z"/>
	<path style="fill:#95C11F;" d="M107.198,482.344H81.431V459.69c0-21.316,17.28-38.596,38.596-38.596h25.441v22.98
		C145.469,465.21,128.334,482.344,107.198,482.344z"/>
	<g id="XMLID_1361_">
		<path style="fill:#95C11F;" d="M45.874,482.344h25.819v-22.706c0-21.287-17.257-38.544-38.544-38.544H7.656v23.032
			C7.656,465.233,24.767,482.344,45.874,482.344z"/>
		<path style="fill:#1D1D1B;" d="M236.633,490c19.584,0,35.517-15.934,35.517-35.518V428.75h-27.497
			c-7.633,0-14.71,2.406-20.53,6.488v-92.307C236.243,338.85,245,327.385,245,313.906v-30.625h245v-15.313H245
			c0-16.887-13.738-30.625-30.625-30.625s-30.625,13.738-30.625,30.625h-76.563v-94.875c0-15.232-12.393-27.625-27.625-27.625h-3
			c-16.887,0-30.625,13.738-30.625,30.625v91.875H0v15.313h45.938c0,14.244,9.775,26.247,22.969,29.656v117.482
			c-8.48-10.358-21.358-16.982-35.757-16.982H0v30.689C0,469.421,20.579,490,45.874,490h61.324
			c25.324,0,45.927-20.603,45.927-45.927v-30.636h-33.098c-14.422,0-27.32,6.638-35.808,17.016V312.938
			c13.194-3.408,22.969-15.412,22.969-29.656h76.563v30.625c0,14.986,10.822,27.483,25.06,30.109v90.444
			c-5.417-3.603-11.912-5.709-18.892-5.709h-29.137v27.372c0,18.681,15.197,33.878,33.878,33.878H236.633z M64.037,474.688H45.874
			c-16.852,0-30.562-13.71-30.562-30.561V428.75h17.837c17.031,0,30.888,13.856,30.888,30.888V474.688z M89.088,459.69
			c0-17.06,13.879-30.94,30.939-30.94h17.785v15.323c0,16.881-13.733,30.614-30.614,30.614h-18.11V459.69z M91.875,283.281
			c0,8.443-6.869,15.313-15.313,15.313s-15.313-6.869-15.313-15.313V176.094c0-8.443,6.869-15.313,15.313-15.313h3
			c6.789,0,12.313,5.523,12.313,12.313V283.281z M208.81,464.593v10.095h-14.15c-10.237,0-18.565-8.328-18.565-18.565v-12.06h13.824
			c10.417,0,18.892,8.475,18.892,18.892v1.638H208.81z M244.652,444.063h12.185v10.42c0,11.142-9.064,20.205-20.204,20.205h-12.511
			v-10.095C224.122,453.272,233.332,444.063,244.652,444.063z M214.375,329.219c-8.443,0-15.313-6.869-15.313-15.313v-45.938
			c0-8.443,6.869-15.313,15.313-15.313s15.313,6.869,15.313,15.313v45.938C229.688,322.35,222.818,329.219,214.375,329.219z"/>
	</g>
	<g id="XMLID_1049_">
		<rect x="275.625" y="398.125" style="fill:#FFFFFF;" width="22.969" height="15.313"/>
	</g>
	<g id="XMLID_1054_">
		<rect x="359.844" y="413.438" style="fill:#FFFFFF;" width="68.906" height="15.313"/>
	</g>
	<g id="XMLID_1056_">
		<rect x="436.406" y="390.469" style="fill:#FFFFFF;" width="15.313" height="15.313"/>
	</g>
	<g id="XMLID_1058_">
		<rect x="107.187" y="390.469" style="fill:#FFFFFF;" width="22.969" height="15.313"/>
	</g>
	<g id="XMLID_1137_">
		<g>
			<path style="fill:#FFFFFF;" d="M384.727,116.322c-7.486,0-13.873-4.8-16.242-11.484h-33.523c-9.499,0-17.227-7.728-17.227-17.227
				s7.728-17.226,17.227-17.226h72.734c7.486,0,13.873,4.8,16.242,11.484h33.523c9.499,0,17.227,7.728,17.227,17.227
				s-7.728,17.227-17.227,17.227L384.727,116.322L384.727,116.322z"/>
		</g>
		<g>
			<path style="fill:#1D1D1B;" d="M407.695,78.041c5.286,0,9.57,4.285,9.57,9.57c0,0.656-0.067,1.295-0.193,1.914h40.388
				c5.286,0,9.57,4.285,9.57,9.57s-4.285,9.57-9.57,9.57h-72.734c-5.286,0-9.57-4.285-9.57-9.57c0-0.656,0.067-1.295,0.193-1.914
				h-40.388c-5.286,0-9.57-4.285-9.57-9.57c0-5.286,4.285-9.57,9.57-9.57H407.695 M407.695,62.729h-72.734
				c-13.72,0-24.883,11.162-24.883,24.883c0,13.72,11.162,24.883,24.883,24.883h28.806c4.428,6.902,12.168,11.484,20.96,11.484
				h72.734c13.72,0,24.883-11.162,24.883-24.883c0-13.72-11.162-24.883-24.883-24.883h-28.806
				C424.227,67.311,416.487,62.729,407.695,62.729L407.695,62.729z"/>
		</g>
	</g>
</g>
</svg>