<svg xmlns="http://www.w3.org/2000/svg" xmlns:xlink="http://www.w3.org/1999/xlink" width="60" height="55" viewBox="0 0 60 55"><defs><path id="lcgra" d="M313 1988.967h-58c-.6 0-1-.4-1-.998 0-.6.4-.999 1-.999h58c.6 0 1 .4 1 .999s-.4.998-1 .998z"/><path id="lcgrb" d="M257 1973.99h10v13.98h-10z"/><path id="lcgrc" d="M258 1986.97h8v-11.983h-8zm10 1.997h-12v-15.977h12z"/><path id="lcgrd" d="M272 1965h10v22.967h-10z"/><path id="lcgre" d="M273 1986.967h8v-20.969h-8zm10 1.998h-12V1964h12z"/><path id="lcgrf" d="M287 1957.01h10v30.956h-10z"/><path id="lcgrg" d="M288 1986.965h8v-28.957h-8zm10 1.998h-12v-32.953h12z"/><path id="lcgrh" d="M302 1949.02h10v38.945h-10z"/><path id="lcgri" d="M303 1986.965h8v-36.938h-8zm10 2.007h-12v-40.942h12z"/><path id="lcgrj" d="M262 1959.307c-.3 0-.699-.2-.9-.5-.3-.499-.099-1.098.4-1.397l36.3-20.87-5.499-.5c-.5-.1-1-.5-.9-1.098.1-.5.5-.999 1.1-.9l8.5.8h.2c.1 0 .2.1.3.1l.1.1.2.2c0 .099.1.199.1.299v.499c0 .1 0 .1-.1.2l-3.6 7.789c-.2.5-.8.699-1.3.5-.5-.2-.7-.8-.5-1.3l2.3-4.992-36.2 20.97c-.1.1-.3.1-.5.1z"/></defs><g><g transform="translate(-254 -1934)"><g><use fill="#38a89d" xlink:href="#lcgra"/></g><g><use fill="#fff" xlink:href="#lcgrb"/></g><g><use fill="#38a89d" xlink:href="#lcgrc"/></g><g><use fill="#fff" xlink:href="#lcgrd"/></g><g><use fill="#38a89d" xlink:href="#lcgre"/></g><g><use fill="#fff" xlink:href="#lcgrf"/></g><g><use fill="#38a89d" xlink:href="#lcgrg"/></g><g><use fill="#c1e4e1" xlink:href="#lcgrh"/></g><g><g><use fill="#38a89d" xlink:href="#lcgri"/></g><g><use fill="#38a89d" xlink:href="#lcgrj"/></g></g></g></g></svg>